<?xml version="1.0" encoding="UTF-8" standalone="no"?>
<!DOCTYPE svg PUBLIC "-//W3C//DTD SVG 1.1//EN"
 "http://www.w3.org/Graphics/SVG/1.1/DTD/svg11.dtd">
<!-- Generated by graphviz version 2.38.0 (20140413.2041)
 -->
<!-- Title: %3 Pages: 1 -->
<svg width="971pt" height="1838pt"
 viewBox="0.00 0.00 970.50 1838.00" xmlns="http://www.w3.org/2000/svg" xmlns:xlink="http://www.w3.org/1999/xlink">
<g id="graph0" class="graph" transform="scale(1 1) rotate(0) translate(4 1834)">
<title>%3</title>
<polygon fill="white" stroke="none" points="-4,4 -4,-1834 966.5,-1834 966.5,4 -4,4"/>
<!-- 1 -->
<g id="node1" class="node"><title>1</title>
<g id="a_node1"><a xlink:title="/home/michael/.local/lib/python3.6/site&#45;packages/torch/__init__.py">
<polygon fill="#0d1174" stroke="#0d1174" points="930,-1830 825,-1830 825,-1778 930,-1778 930,-1830"/>
<text text-anchor="middle" x="877.5" y="-1818" font-family="Arial" font-size="10.00" fill="#ffffff">__init__:9:&lt;module&gt;</text>
<text text-anchor="middle" x="877.5" y="-1807" font-family="Arial" font-size="10.00" fill="#ffffff">1.15%</text>
<text text-anchor="middle" x="877.5" y="-1796" font-family="Arial" font-size="10.00" fill="#ffffff">(0.00%)</text>
<text text-anchor="middle" x="877.5" y="-1785" font-family="Arial" font-size="10.00" fill="#ffffff">1×</text>
</a>
</g>
</g>
<!-- 162 -->
<g id="node2" class="node"><title>162</title>
<g id="a_node2"><a xlink:title="&lt;frozen importlib._bootstrap&gt;">
<polygon fill="#0d1575" stroke="#0d1575" points="833.5,-1738 657.5,-1738 657.5,-1686 833.5,-1686 833.5,-1738"/>
<text text-anchor="middle" x="745.5" y="-1726" font-family="Arial" font-size="10.00" fill="#ffffff">&lt;frozen importlib:966:_find_and_load</text>
<text text-anchor="middle" x="745.5" y="-1715" font-family="Arial" font-size="10.00" fill="#ffffff">2.03%</text>
<text text-anchor="middle" x="745.5" y="-1704" font-family="Arial" font-size="10.00" fill="#ffffff">(0.01%)</text>
<text text-anchor="middle" x="745.5" y="-1693" font-family="Arial" font-size="10.00" fill="#ffffff">478×</text>
</a>
</g>
</g>
<!-- 1&#45;&gt;162 -->
<g id="edge1" class="edge"><title>1&#45;&gt;162</title>
<path fill="none" stroke="#0d1174" stroke-width="0.5" d="M840.731,-1777.93C823.568,-1766.23 803.1,-1752.27 785.546,-1740.3"/>
<polygon fill="#0d1174" stroke="#0d1174" stroke-width="0.5" points="786.112,-1739.21 782.53,-1738.25 784.732,-1741.23 786.112,-1739.21"/>
<text text-anchor="middle" x="841.5" y="-1761" font-family="Arial" font-size="10.00" fill="#0d1174">1.12%</text>
<text text-anchor="middle" x="841.5" y="-1750" font-family="Arial" font-size="10.00" fill="#0d1174">18×</text>
</g>
<!-- 366 -->
<g id="node14" class="node"><title>366</title>
<g id="a_node14"><a xlink:title="&lt;frozen importlib._bootstrap&gt;">
<polygon fill="#0d1575" stroke="#0d1575" points="856,-1646 635,-1646 635,-1594 856,-1594 856,-1646"/>
<text text-anchor="middle" x="745.5" y="-1634" font-family="Arial" font-size="10.00" fill="#ffffff">&lt;frozen importlib:936:_find_and_load_unlocked</text>
<text text-anchor="middle" x="745.5" y="-1623" font-family="Arial" font-size="10.00" fill="#ffffff">2.03%</text>
<text text-anchor="middle" x="745.5" y="-1612" font-family="Arial" font-size="10.00" fill="#ffffff">(0.01%)</text>
<text text-anchor="middle" x="745.5" y="-1601" font-family="Arial" font-size="10.00" fill="#ffffff">467×</text>
</a>
</g>
</g>
<!-- 162&#45;&gt;366 -->
<g id="edge12" class="edge"><title>162&#45;&gt;366</title>
<path fill="none" stroke="#0d1575" stroke-width="0.5" d="M745.5,-1685.93C745.5,-1674.71 745.5,-1661.42 745.5,-1649.8"/>
<polygon fill="#0d1575" stroke="#0d1575" stroke-width="0.5" points="746.725,-1649.75 745.5,-1646.25 744.275,-1649.75 746.725,-1649.75"/>
<text text-anchor="middle" x="759.5" y="-1669" font-family="Arial" font-size="10.00" fill="#0d1575">2.03%</text>
<text text-anchor="middle" x="759.5" y="-1658" font-family="Arial" font-size="10.00" fill="#0d1575">7×</text>
</g>
<!-- 45 -->
<g id="node3" class="node"><title>45</title>
<g id="a_node3"><a xlink:title="/home/michael/.local/lib/python3.6/site&#45;packages/torch/nn/_functions/rnn.py">
<polygon fill="#0d4282" stroke="#0d4282" points="652.5,-604 574.5,-604 574.5,-552 652.5,-552 652.5,-604"/>
<text text-anchor="middle" x="613.5" y="-592" font-family="Arial" font-size="10.00" fill="#ffffff">rnn:73:forward</text>
<text text-anchor="middle" x="613.5" y="-581" font-family="Arial" font-size="10.00" fill="#ffffff">11.48%</text>
<text text-anchor="middle" x="613.5" y="-570" font-family="Arial" font-size="10.00" fill="#ffffff">(0.00%)</text>
<text text-anchor="middle" x="613.5" y="-559" font-family="Arial" font-size="10.00" fill="#ffffff">11×</text>
</a>
</g>
</g>
<!-- 46 -->
<g id="node4" class="node"><title>46</title>
<g id="a_node4"><a xlink:title="/home/michael/.local/lib/python3.6/site&#45;packages/torch/nn/_functions/rnn.py">
<polygon fill="#0d4282" stroke="#0d4282" points="644,-512 561,-512 561,-460 644,-460 644,-512"/>
<text text-anchor="middle" x="602.5" y="-500" font-family="Arial" font-size="10.00" fill="#ffffff">rnn:110:forward</text>
<text text-anchor="middle" x="602.5" y="-489" font-family="Arial" font-size="10.00" fill="#ffffff">11.47%</text>
<text text-anchor="middle" x="602.5" y="-478" font-family="Arial" font-size="10.00" fill="#ffffff">(0.02%)</text>
<text text-anchor="middle" x="602.5" y="-467" font-family="Arial" font-size="10.00" fill="#ffffff">21×</text>
</a>
</g>
</g>
<!-- 45&#45;&gt;46 -->
<g id="edge2" class="edge"><title>45&#45;&gt;46</title>
<path fill="none" stroke="#0d4282" stroke-width="0.5" d="M610.436,-551.93C609.065,-540.712 607.441,-527.422 606.02,-515.798"/>
<polygon fill="#0d4282" stroke="#0d4282" stroke-width="0.5" points="607.226,-515.573 605.586,-512.248 604.795,-515.871 607.226,-515.573"/>
<text text-anchor="middle" x="626.5" y="-535" font-family="Arial" font-size="10.00" fill="#0d4282">11.47%</text>
<text text-anchor="middle" x="626.5" y="-524" font-family="Arial" font-size="10.00" fill="#0d4282">21×</text>
</g>
<!-- 1130 -->
<g id="node5" class="node"><title>1130</title>
<g id="a_node5"><a xlink:title="/home/michael/.local/lib/python3.6/site&#45;packages/torch/nn/_functions/rnn.py">
<polygon fill="#0d4281" stroke="#0d4281" points="641,-420 552,-420 552,-368 641,-368 641,-420"/>
<text text-anchor="middle" x="596.5" y="-408" font-family="Arial" font-size="10.00" fill="#ffffff">rnn:24:LSTMCell</text>
<text text-anchor="middle" x="596.5" y="-397" font-family="Arial" font-size="10.00" fill="#ffffff">11.40%</text>
<text text-anchor="middle" x="596.5" y="-386" font-family="Arial" font-size="10.00" fill="#ffffff">(0.11%)</text>
<text text-anchor="middle" x="596.5" y="-375" font-family="Arial" font-size="10.00" fill="#ffffff">385×</text>
</a>
</g>
</g>
<!-- 46&#45;&gt;1130 -->
<g id="edge3" class="edge"><title>46&#45;&gt;1130</title>
<path fill="none" stroke="#0d4281" stroke-width="0.5" d="M600.829,-459.93C600.081,-448.712 599.195,-435.422 598.42,-423.798"/>
<polygon fill="#0d4281" stroke="#0d4281" stroke-width="0.5" points="599.638,-423.658 598.183,-420.248 597.194,-423.821 599.638,-423.658"/>
<text text-anchor="middle" x="617.5" y="-443" font-family="Arial" font-size="10.00" fill="#0d4281">11.40%</text>
<text text-anchor="middle" x="617.5" y="-432" font-family="Arial" font-size="10.00" fill="#0d4281">385×</text>
</g>
<!-- 1125 -->
<g id="node29" class="node"><title>1125</title>
<g id="a_node29"><a xlink:title="/home/michael/.local/lib/python3.6/site&#45;packages/torch/nn/functional.py">
<polygon fill="#0d4783" stroke="#0d4783" points="608.5,-328 504.5,-328 504.5,-276 608.5,-276 608.5,-328"/>
<text text-anchor="middle" x="556.5" y="-316" font-family="Arial" font-size="10.00" fill="#ffffff">functional:822:linear</text>
<text text-anchor="middle" x="556.5" y="-305" font-family="Arial" font-size="10.00" fill="#ffffff">12.30%</text>
<text text-anchor="middle" x="556.5" y="-294" font-family="Arial" font-size="10.00" fill="#ffffff">(0.03%)</text>
<text text-anchor="middle" x="556.5" y="-283" font-family="Arial" font-size="10.00" fill="#ffffff">800×</text>
</a>
</g>
</g>
<!-- 1130&#45;&gt;1125 -->
<g id="edge32" class="edge"><title>1130&#45;&gt;1125</title>
<path fill="none" stroke="#0d4081" stroke-width="0.5" d="M585.358,-367.93C580.329,-356.615 574.364,-343.193 569.166,-331.497"/>
<polygon fill="#0d4081" stroke="#0d4081" stroke-width="0.5" points="570.262,-330.949 567.721,-328.248 568.023,-331.944 570.262,-330.949"/>
<text text-anchor="middle" x="598.5" y="-351" font-family="Arial" font-size="10.00" fill="#0d4081">11.03%</text>
<text text-anchor="middle" x="598.5" y="-340" font-family="Arial" font-size="10.00" fill="#0d4081">770×</text>
</g>
<!-- 91 -->
<g id="node6" class="node"><title>91</title>
<g id="a_node6"><a xlink:title="main.py">
<polygon fill="#ff0000" stroke="#ff0000" points="541.5,-1186 449.5,-1186 449.5,-1134 541.5,-1134 541.5,-1186"/>
<text text-anchor="middle" x="495.5" y="-1174" font-family="Arial" font-size="10.00" fill="#ffffff">main:1:&lt;module&gt;</text>
<text text-anchor="middle" x="495.5" y="-1163" font-family="Arial" font-size="10.00" fill="#ffffff">100.00%</text>
<text text-anchor="middle" x="495.5" y="-1152" font-family="Arial" font-size="10.00" fill="#ffffff">(2.05%)</text>
<text text-anchor="middle" x="495.5" y="-1141" font-family="Arial" font-size="10.00" fill="#ffffff">1×</text>
</a>
</g>
</g>
<!-- 91&#45;&gt;162 -->
<g id="edge6" class="edge"><title>91&#45;&gt;162</title>
<path fill="none" stroke="#0d1375" stroke-width="0.5" d="M487.222,-1186.3C482.101,-1204.18 476.5,-1228.8 476.5,-1251 476.5,-1621 476.5,-1621 476.5,-1621 476.5,-1659.3 575.79,-1684.28 653.725,-1697.99"/>
<polygon fill="#0d1375" stroke="#0d1375" stroke-width="0.5" points="653.761,-1699.24 657.419,-1698.63 654.182,-1696.83 653.761,-1699.24"/>
<text text-anchor="middle" x="490.5" y="-1439" font-family="Arial" font-size="10.00" fill="#0d1375">1.46%</text>
<text text-anchor="middle" x="490.5" y="-1428" font-family="Arial" font-size="10.00" fill="#0d1375">3×</text>
</g>
<!-- 117 -->
<g id="node7" class="node"><title>117</title>
<g id="a_node7"><a xlink:title="&lt;frozen importlib._bootstrap&gt;">
<polygon fill="#0d1174" stroke="#0d1174" points="789.5,-1094 607.5,-1094 607.5,-1042 789.5,-1042 789.5,-1094"/>
<text text-anchor="middle" x="698.5" y="-1082" font-family="Arial" font-size="10.00" fill="#ffffff">&lt;frozen importlib:997:_handle_fromlist</text>
<text text-anchor="middle" x="698.5" y="-1071" font-family="Arial" font-size="10.00" fill="#ffffff">1.08%</text>
<text text-anchor="middle" x="698.5" y="-1060" font-family="Arial" font-size="10.00" fill="#ffffff">(0.00%)</text>
<text text-anchor="middle" x="698.5" y="-1049" font-family="Arial" font-size="10.00" fill="#ffffff">1778×</text>
</a>
</g>
</g>
<!-- 91&#45;&gt;117 -->
<g id="edge4" class="edge"><title>91&#45;&gt;117</title>
<path fill="none" stroke="#0d0f73" stroke-width="0.5" d="M541.564,-1138.58C570.232,-1125.87 607.411,-1109.38 638.386,-1095.65"/>
<polygon fill="#0d0f73" stroke="#0d0f73" stroke-width="0.5" points="639.043,-1096.7 641.747,-1094.16 638.05,-1094.46 639.043,-1096.7"/>
<text text-anchor="middle" x="635.5" y="-1117" font-family="Arial" font-size="10.00" fill="#0d0f73">0.57%</text>
<text text-anchor="middle" x="635.5" y="-1106" font-family="Arial" font-size="10.00" fill="#0d0f73">3×</text>
</g>
<!-- 159 -->
<g id="node8" class="node"><title>159</title>
<g id="a_node8"><a xlink:title="main.py">
<polygon fill="#f34d02" stroke="#f34d02" points="424,-1094 333,-1094 333,-1042 424,-1042 424,-1094"/>
<text text-anchor="middle" x="378.5" y="-1082" font-family="Arial" font-size="10.00" fill="#ffffff">main:92:evaluate</text>
<text text-anchor="middle" x="378.5" y="-1071" font-family="Arial" font-size="10.00" fill="#ffffff">92.27%</text>
<text text-anchor="middle" x="378.5" y="-1060" font-family="Arial" font-size="10.00" fill="#ffffff">(0.01%)</text>
<text text-anchor="middle" x="378.5" y="-1049" font-family="Arial" font-size="10.00" fill="#ffffff">2×</text>
</a>
</g>
</g>
<!-- 91&#45;&gt;159 -->
<g id="edge5" class="edge"><title>91&#45;&gt;159</title>
<path fill="none" stroke="#f34d02" stroke-width="3.69" d="M462.909,-1133.93C449.331,-1123.49 433.419,-1111.25 419.093,-1100.23"/>
<polygon fill="#f34d02" stroke="#f34d02" stroke-width="3.69" points="420.98,-1097.44 411.322,-1094.25 416.883,-1102.76 420.98,-1097.44"/>
<text text-anchor="middle" x="468.5" y="-1117" font-family="Arial" font-size="10.00" fill="#f34d02">92.27%</text>
<text text-anchor="middle" x="468.5" y="-1106" font-family="Arial" font-size="10.00" fill="#f34d02">2×</text>
</g>
<!-- 280 -->
<g id="node9" class="node"><title>280</title>
<g id="a_node9"><a xlink:title="~">
<polygon fill="#0d1575" stroke="#0d1575" points="598,-1094 433,-1094 433,-1042 598,-1042 598,-1094"/>
<text text-anchor="middle" x="515.5" y="-1082" font-family="Arial" font-size="10.00" fill="#ffffff">~:0:&lt;method &#39;split&#39; of &#39;str&#39; objects&gt;</text>
<text text-anchor="middle" x="515.5" y="-1071" font-family="Arial" font-size="10.00" fill="#ffffff">1.99%</text>
<text text-anchor="middle" x="515.5" y="-1060" font-family="Arial" font-size="10.00" fill="#ffffff">(1.99%)</text>
<text text-anchor="middle" x="515.5" y="-1049" font-family="Arial" font-size="10.00" fill="#ffffff">767525×</text>
</a>
</g>
</g>
<!-- 91&#45;&gt;280 -->
<g id="edge7" class="edge"><title>91&#45;&gt;280</title>
<path fill="none" stroke="#0d1575" stroke-width="0.5" d="M501.071,-1133.93C503.564,-1122.71 506.517,-1109.42 509.1,-1097.8"/>
<polygon fill="#0d1575" stroke="#0d1575" stroke-width="0.5" points="510.326,-1097.93 509.889,-1094.25 507.934,-1097.4 510.326,-1097.93"/>
<text text-anchor="middle" x="527.5" y="-1117" font-family="Arial" font-size="10.00" fill="#0d1575">1.98%</text>
<text text-anchor="middle" x="527.5" y="-1106" font-family="Arial" font-size="10.00" fill="#0d1575">755492×</text>
</g>
<!-- 834 -->
<g id="node10" class="node"><title>834</title>
<g id="a_node10"><a xlink:title="/home/michael/.local/lib/python3.6/site&#45;packages/torch/serialization.py">
<polygon fill="#0d1074" stroke="#0d1074" points="317.5,-1094 209.5,-1094 209.5,-1042 317.5,-1042 317.5,-1094"/>
<text text-anchor="middle" x="263.5" y="-1082" font-family="Arial" font-size="10.00" fill="#ffffff">serialization:206:load</text>
<text text-anchor="middle" x="263.5" y="-1071" font-family="Arial" font-size="10.00" fill="#ffffff">0.68%</text>
<text text-anchor="middle" x="263.5" y="-1060" font-family="Arial" font-size="10.00" fill="#ffffff">(0.00%)</text>
<text text-anchor="middle" x="263.5" y="-1049" font-family="Arial" font-size="10.00" fill="#ffffff">1×</text>
</a>
</g>
</g>
<!-- 91&#45;&gt;834 -->
<g id="edge8" class="edge"><title>91&#45;&gt;834</title>
<path fill="none" stroke="#0d1074" stroke-width="0.5" d="M449.254,-1144.51C431.68,-1138.76 411.552,-1131.88 393.5,-1125 369.535,-1115.86 343.504,-1104.87 321.074,-1095.05"/>
<polygon fill="#0d1074" stroke="#0d1074" stroke-width="0.5" points="321.488,-1093.89 317.791,-1093.61 320.504,-1096.14 321.488,-1093.89"/>
<text text-anchor="middle" x="407.5" y="-1117" font-family="Arial" font-size="10.00" fill="#0d1074">0.68%</text>
<text text-anchor="middle" x="407.5" y="-1106" font-family="Arial" font-size="10.00" fill="#0d1074">1×</text>
</g>
<!-- 702 -->
<g id="node11" class="node"><title>702</title>
<g id="a_node11"><a xlink:title="&lt;frozen importlib._bootstrap&gt;">
<polygon fill="#0d1575" stroke="#0d1575" points="833.5,-1370 601.5,-1370 601.5,-1318 833.5,-1318 833.5,-1370"/>
<text text-anchor="middle" x="717.5" y="-1358" font-family="Arial" font-size="10.00" fill="#ffffff">&lt;frozen importlib:211:_call_with_frames_removed</text>
<text text-anchor="middle" x="717.5" y="-1347" font-family="Arial" font-size="10.00" fill="#ffffff">2.02%</text>
<text text-anchor="middle" x="717.5" y="-1336" font-family="Arial" font-size="10.00" fill="#ffffff">(0.00%)</text>
<text text-anchor="middle" x="717.5" y="-1325" font-family="Arial" font-size="10.00" fill="#ffffff">584×</text>
</a>
</g>
</g>
<!-- 117&#45;&gt;702 -->
<g id="edge9" class="edge"><title>117&#45;&gt;702</title>
<path fill="none" stroke="#0d1174" stroke-width="0.5" d="M697.38,-1094.18C696.328,-1123.66 695.341,-1173.95 698.5,-1217 700.505,-1244.33 703.416,-1250.9 707.5,-1278 709.273,-1289.77 711.26,-1302.73 712.992,-1313.96"/>
<polygon fill="#0d1174" stroke="#0d1174" stroke-width="0.5" points="711.825,-1314.42 713.57,-1317.69 714.246,-1314.05 711.825,-1314.42"/>
<text text-anchor="middle" x="712.5" y="-1209" font-family="Arial" font-size="10.00" fill="#0d1174">1.07%</text>
<text text-anchor="middle" x="712.5" y="-1198" font-family="Arial" font-size="10.00" fill="#0d1174">26×</text>
</g>
<!-- 897 -->
<g id="node12" class="node"><title>897</title>
<g id="a_node12"><a xlink:title="/home/michael/.local/lib/python3.6/site&#45;packages/torch/nn/modules/module.py">
<polygon fill="#0d4a83" stroke="#0d4a83" points="552.5,-1002 446.5,-1002 446.5,-950 552.5,-950 552.5,-1002"/>
<text text-anchor="middle" x="499.5" y="-990" font-family="Arial" font-size="10.00" fill="#ffffff">module:322:__call__</text>
<text text-anchor="middle" x="499.5" y="-979" font-family="Arial" font-size="10.00" fill="#ffffff">12.89%</text>
<text text-anchor="middle" x="499.5" y="-968" font-family="Arial" font-size="10.00" fill="#ffffff">(0.00%)</text>
<text text-anchor="middle" x="499.5" y="-957" font-family="Arial" font-size="10.00" fill="#ffffff">103×</text>
</a>
</g>
</g>
<!-- 159&#45;&gt;897 -->
<g id="edge10" class="edge"><title>159&#45;&gt;897</title>
<path fill="none" stroke="#0d4a83" stroke-width="0.52" d="M412.205,-1041.93C427.808,-1030.32 446.39,-1016.5 462.392,-1004.6"/>
<polygon fill="#0d4a83" stroke="#0d4a83" stroke-width="0.52" points="463.419,-1005.41 465.556,-1002.25 461.915,-1003.39 463.419,-1005.41"/>
<text text-anchor="middle" x="470.5" y="-1025" font-family="Arial" font-size="10.00" fill="#0d4a83">12.89%</text>
<text text-anchor="middle" x="470.5" y="-1014" font-family="Arial" font-size="10.00" fill="#0d4a83">30×</text>
</g>
<!-- 2622 -->
<g id="node13" class="node"><title>2622</title>
<g id="a_node13"><a xlink:title="/home/michael/.local/lib/python3.6/site&#45;packages/torch/autograd/variable.py">
<polygon fill="#dfbd05" stroke="#dfbd05" points="435,-1002 322,-1002 322,-950 435,-950 435,-1002"/>
<text text-anchor="middle" x="378.5" y="-990" font-family="Arial" font-size="10.00" fill="#ffffff">variable:138:backward</text>
<text text-anchor="middle" x="378.5" y="-979" font-family="Arial" font-size="10.00" fill="#ffffff">78.96%</text>
<text text-anchor="middle" x="378.5" y="-968" font-family="Arial" font-size="10.00" fill="#ffffff">(0.00%)</text>
<text text-anchor="middle" x="378.5" y="-957" font-family="Arial" font-size="10.00" fill="#ffffff">9×</text>
</a>
</g>
</g>
<!-- 159&#45;&gt;2622 -->
<g id="edge11" class="edge"><title>159&#45;&gt;2622</title>
<path fill="none" stroke="#dfbd05" stroke-width="3.16" d="M378.5,-1041.93C378.5,-1032.45 378.5,-1021.5 378.5,-1011.32"/>
<polygon fill="#dfbd05" stroke="#dfbd05" stroke-width="3.16" points="381.615,-1011.15 378.5,-1002.25 375.385,-1011.15 381.615,-1011.15"/>
<text text-anchor="middle" x="395.5" y="-1025" font-family="Arial" font-size="10.00" fill="#dfbd05">78.96%</text>
<text text-anchor="middle" x="395.5" y="-1014" font-family="Arial" font-size="10.00" fill="#dfbd05">9×</text>
</g>
<!-- 835 -->
<g id="node24" class="node"><title>835</title>
<g id="a_node24"><a xlink:title="/home/michael/.local/lib/python3.6/site&#45;packages/torch/serialization.py">
<polygon fill="#0d1074" stroke="#0d1074" points="264,-1002 151,-1002 151,-950 264,-950 264,-1002"/>
<text text-anchor="middle" x="207.5" y="-990" font-family="Arial" font-size="10.00" fill="#ffffff">serialization:267:_load</text>
<text text-anchor="middle" x="207.5" y="-979" font-family="Arial" font-size="10.00" fill="#ffffff">0.68%</text>
<text text-anchor="middle" x="207.5" y="-968" font-family="Arial" font-size="10.00" fill="#ffffff">(0.00%)</text>
<text text-anchor="middle" x="207.5" y="-957" font-family="Arial" font-size="10.00" fill="#ffffff">1×</text>
</a>
</g>
</g>
<!-- 834&#45;&gt;835 -->
<g id="edge24" class="edge"><title>834&#45;&gt;835</title>
<path fill="none" stroke="#0d1074" stroke-width="0.5" d="M247.901,-1041.93C240.86,-1030.61 232.509,-1017.19 225.232,-1005.5"/>
<polygon fill="#0d1074" stroke="#0d1074" stroke-width="0.5" points="226.099,-1004.57 223.21,-1002.25 224.019,-1005.87 226.099,-1004.57"/>
<text text-anchor="middle" x="256.5" y="-1025" font-family="Arial" font-size="10.00" fill="#0d1074">0.68%</text>
<text text-anchor="middle" x="256.5" y="-1014" font-family="Arial" font-size="10.00" fill="#0d1074">1×</text>
</g>
<!-- 700 -->
<g id="node16" class="node"><title>700</title>
<g id="a_node16"><a xlink:title="~">
<polygon fill="#0d1274" stroke="#0d1274" points="684.5,-1278 490.5,-1278 490.5,-1226 684.5,-1226 684.5,-1278"/>
<text text-anchor="middle" x="587.5" y="-1266" font-family="Arial" font-size="10.00" fill="#ffffff">~:0:&lt;built&#45;in method builtins.__import__&gt;</text>
<text text-anchor="middle" x="587.5" y="-1255" font-family="Arial" font-size="10.00" fill="#ffffff">1.32%</text>
<text text-anchor="middle" x="587.5" y="-1244" font-family="Arial" font-size="10.00" fill="#ffffff">(0.00%)</text>
<text text-anchor="middle" x="587.5" y="-1233" font-family="Arial" font-size="10.00" fill="#ffffff">379×</text>
</a>
</g>
</g>
<!-- 702&#45;&gt;700 -->
<g id="edge16" class="edge"><title>702&#45;&gt;700</title>
<path fill="none" stroke="#0d1274" stroke-width="0.5" d="M676.894,-1317.88C672.344,-1314.94 667.802,-1311.93 663.5,-1309 650.156,-1299.9 635.823,-1289.51 623.241,-1280.17"/>
<polygon fill="#0d1274" stroke="#0d1274" stroke-width="0.5" points="623.956,-1279.17 620.417,-1278.07 622.494,-1281.14 623.956,-1279.17"/>
<text text-anchor="middle" x="677.5" y="-1301" font-family="Arial" font-size="10.00" fill="#0d1274">1.25%</text>
<text text-anchor="middle" x="677.5" y="-1290" font-family="Arial" font-size="10.00" fill="#0d1274">27×</text>
</g>
<!-- 732 -->
<g id="node17" class="node"><title>732</title>
<g id="a_node17"><a xlink:title="~">
<polygon fill="#ff0000" stroke="#ff0000" points="879,-1278 712,-1278 712,-1226 879,-1226 879,-1278"/>
<text text-anchor="middle" x="795.5" y="-1266" font-family="Arial" font-size="10.00" fill="#ffffff">~:0:&lt;built&#45;in method builtins.exec&gt;</text>
<text text-anchor="middle" x="795.5" y="-1255" font-family="Arial" font-size="10.00" fill="#ffffff">100.00%</text>
<text text-anchor="middle" x="795.5" y="-1244" font-family="Arial" font-size="10.00" fill="#ffffff">(0.04%)</text>
<text text-anchor="middle" x="795.5" y="-1233" font-family="Arial" font-size="10.00" fill="#ffffff">427×</text>
</a>
</g>
</g>
<!-- 702&#45;&gt;732 -->
<g id="edge17" class="edge"><title>702&#45;&gt;732</title>
<path fill="none" stroke="#0d1575" stroke-width="0.5" d="M739.227,-1317.93C749.201,-1306.42 761.064,-1292.73 771.321,-1280.9"/>
<polygon fill="#0d1575" stroke="#0d1575" stroke-width="0.5" points="772.252,-1281.69 773.619,-1278.25 770.401,-1280.09 772.252,-1281.69"/>
<text text-anchor="middle" x="780.5" y="-1301" font-family="Arial" font-size="10.00" fill="#0d1575">2.01%</text>
<text text-anchor="middle" x="780.5" y="-1290" font-family="Arial" font-size="10.00" fill="#0d1575">6×</text>
</g>
<!-- 829 -->
<g id="node20" class="node"><title>829</title>
<g id="a_node20"><a xlink:title="/home/michael/.local/lib/python3.6/site&#45;packages/torch/nn/modules/rnn.py">
<polygon fill="#0d4282" stroke="#0d4282" points="655,-910 572,-910 572,-858 655,-858 655,-910"/>
<text text-anchor="middle" x="613.5" y="-898" font-family="Arial" font-size="10.00" fill="#ffffff">rnn:131:forward</text>
<text text-anchor="middle" x="613.5" y="-887" font-family="Arial" font-size="10.00" fill="#ffffff">11.49%</text>
<text text-anchor="middle" x="613.5" y="-876" font-family="Arial" font-size="10.00" fill="#ffffff">(0.00%)</text>
<text text-anchor="middle" x="613.5" y="-865" font-family="Arial" font-size="10.00" fill="#ffffff">11×</text>
</a>
</g>
</g>
<!-- 897&#45;&gt;829 -->
<g id="edge26" class="edge"><title>897&#45;&gt;829</title>
<path fill="none" stroke="#0d4282" stroke-width="0.5" d="M552.866,-954.612C560.173,-950.667 567.288,-946.134 573.5,-941 582.848,-933.275 591.071,-922.872 597.592,-913.13"/>
<polygon fill="#0d4282" stroke="#0d4282" stroke-width="0.5" points="598.664,-913.73 599.561,-910.131 596.616,-912.385 598.664,-913.73"/>
<text text-anchor="middle" x="610.5" y="-933" font-family="Arial" font-size="10.00" fill="#0d4282">11.49%</text>
<text text-anchor="middle" x="610.5" y="-922" font-family="Arial" font-size="10.00" fill="#0d4282">11×</text>
</g>
<!-- 1140 -->
<g id="node26" class="node"><title>1140</title>
<g id="a_node26"><a xlink:title="/home/michael/NLP&#45;Diagnostic&#45;Classifier/model.py">
<polygon fill="#0d4983" stroke="#0d4983" points="563,-910 472,-910 472,-858 563,-858 563,-910"/>
<text text-anchor="middle" x="517.5" y="-898" font-family="Arial" font-size="10.00" fill="#ffffff">model:45:forward</text>
<text text-anchor="middle" x="517.5" y="-887" font-family="Arial" font-size="10.00" fill="#ffffff">12.70%</text>
<text text-anchor="middle" x="517.5" y="-876" font-family="Arial" font-size="10.00" fill="#ffffff">(0.00%)</text>
<text text-anchor="middle" x="517.5" y="-865" font-family="Arial" font-size="10.00" fill="#ffffff">11×</text>
</a>
</g>
</g>
<!-- 897&#45;&gt;1140 -->
<g id="edge27" class="edge"><title>897&#45;&gt;1140</title>
<path fill="none" stroke="#0d4983" stroke-width="0.51" d="M498.921,-949.912C499.193,-940.151 500.125,-928.943 502.5,-919 502.909,-917.286 503.402,-915.551 503.956,-913.818"/>
<polygon fill="#0d4983" stroke="#0d4983" stroke-width="0.51" points="505.196,-914.088 505.171,-910.274 502.812,-913.271 505.196,-914.088"/>
<text text-anchor="middle" x="519.5" y="-933" font-family="Arial" font-size="10.00" fill="#0d4983">12.70%</text>
<text text-anchor="middle" x="519.5" y="-922" font-family="Arial" font-size="10.00" fill="#0d4983">11×</text>
</g>
<!-- 2384 -->
<g id="node27" class="node"><title>2384</title>
<g id="a_node27"><a xlink:title="/home/michael/.local/lib/python3.6/site&#45;packages/torch/nn/modules/linear.py">
<polygon fill="#0d1274" stroke="#0d1274" points="542.5,-849 454.5,-849 454.5,-797 542.5,-797 542.5,-849"/>
<text text-anchor="middle" x="498.5" y="-837" font-family="Arial" font-size="10.00" fill="#ffffff">linear:54:forward</text>
<text text-anchor="middle" x="498.5" y="-826" font-family="Arial" font-size="10.00" fill="#ffffff">1.28%</text>
<text text-anchor="middle" x="498.5" y="-815" font-family="Arial" font-size="10.00" fill="#ffffff">(0.00%)</text>
<text text-anchor="middle" x="498.5" y="-804" font-family="Arial" font-size="10.00" fill="#ffffff">30×</text>
</a>
</g>
</g>
<!-- 897&#45;&gt;2384 -->
<g id="edge28" class="edge"><title>897&#45;&gt;2384</title>
<path fill="none" stroke="#0d1274" stroke-width="0.5" d="M474.316,-949.846C472.428,-947.02 470.768,-944.053 469.5,-941 464.398,-928.717 465.914,-862.095 467.5,-858 468.221,-856.138 469.098,-854.315 470.091,-852.542"/>
<polygon fill="#0d1274" stroke="#0d1274" stroke-width="0.5" points="471.227,-853.033 471.999,-849.406 469.134,-851.759 471.227,-853.033"/>
<text text-anchor="middle" x="483.5" y="-933" font-family="Arial" font-size="10.00" fill="#0d1274">1.28%</text>
<text text-anchor="middle" x="483.5" y="-922" font-family="Arial" font-size="10.00" fill="#0d1274">30×</text>
</g>
<!-- 831 -->
<g id="node22" class="node"><title>831</title>
<g id="a_node22"><a xlink:title="/home/michael/.local/lib/python3.6/site&#45;packages/torch/autograd/__init__.py">
<polygon fill="#dfbd05" stroke="#dfbd05" points="432.5,-910 324.5,-910 324.5,-858 432.5,-858 432.5,-910"/>
<text text-anchor="middle" x="378.5" y="-898" font-family="Arial" font-size="10.00" fill="#ffffff">__init__:47:backward</text>
<text text-anchor="middle" x="378.5" y="-887" font-family="Arial" font-size="10.00" fill="#ffffff">78.96%</text>
<text text-anchor="middle" x="378.5" y="-876" font-family="Arial" font-size="10.00" fill="#ffffff">(0.00%)</text>
<text text-anchor="middle" x="378.5" y="-865" font-family="Arial" font-size="10.00" fill="#ffffff">9×</text>
</a>
</g>
</g>
<!-- 2622&#45;&gt;831 -->
<g id="edge38" class="edge"><title>2622&#45;&gt;831</title>
<path fill="none" stroke="#dfbd05" stroke-width="3.16" d="M378.5,-949.93C378.5,-940.452 378.5,-929.497 378.5,-919.315"/>
<polygon fill="#dfbd05" stroke="#dfbd05" stroke-width="3.16" points="381.615,-919.148 378.5,-910.248 375.385,-919.148 381.615,-919.148"/>
<text text-anchor="middle" x="395.5" y="-933" font-family="Arial" font-size="10.00" fill="#dfbd05">78.96%</text>
<text text-anchor="middle" x="395.5" y="-922" font-family="Arial" font-size="10.00" fill="#dfbd05">9×</text>
</g>
<!-- 366&#45;&gt;702 -->
<g id="edge13" class="edge"><title>366&#45;&gt;702</title>
<path fill="none" stroke="#0d0f73" stroke-width="0.5" d="M768.822,-1593.83C777.75,-1582.53 786.891,-1568.49 791.5,-1554 797.079,-1536.46 798.787,-1428.21 790.5,-1410 783.834,-1395.35 772.09,-1382.64 759.945,-1372.43"/>
<polygon fill="#0d0f73" stroke="#0d0f73" stroke-width="0.5" points="760.665,-1371.44 757.184,-1370.16 759.109,-1373.33 760.665,-1371.44"/>
<text text-anchor="middle" x="810.5" y="-1485" font-family="Arial" font-size="10.00" fill="#0d0f73">0.53%</text>
<text text-anchor="middle" x="810.5" y="-1474" font-family="Arial" font-size="10.00" fill="#0d0f73">7×</text>
</g>
<!-- 787 -->
<g id="node15" class="node"><title>787</title>
<g id="a_node15"><a xlink:title="&lt;frozen importlib._bootstrap&gt;">
<polygon fill="#0d1575" stroke="#0d1575" points="787,-1554 608,-1554 608,-1502 787,-1502 787,-1554"/>
<text text-anchor="middle" x="697.5" y="-1542" font-family="Arial" font-size="10.00" fill="#ffffff">&lt;frozen importlib:651:_load_unlocked</text>
<text text-anchor="middle" x="697.5" y="-1531" font-family="Arial" font-size="10.00" fill="#ffffff">2.03%</text>
<text text-anchor="middle" x="697.5" y="-1520" font-family="Arial" font-size="10.00" fill="#ffffff">(0.01%)</text>
<text text-anchor="middle" x="697.5" y="-1509" font-family="Arial" font-size="10.00" fill="#ffffff">453×</text>
</a>
</g>
</g>
<!-- 366&#45;&gt;787 -->
<g id="edge14" class="edge"><title>366&#45;&gt;787</title>
<path fill="none" stroke="#0d1575" stroke-width="0.5" d="M732.129,-1593.93C726.095,-1582.61 718.936,-1569.19 712.699,-1557.5"/>
<polygon fill="#0d1575" stroke="#0d1575" stroke-width="0.5" points="713.693,-1556.76 710.965,-1554.25 711.532,-1557.91 713.693,-1556.76"/>
<text text-anchor="middle" x="741.5" y="-1577" font-family="Arial" font-size="10.00" fill="#0d1575">2.03%</text>
<text text-anchor="middle" x="741.5" y="-1566" font-family="Arial" font-size="10.00" fill="#0d1575">7×</text>
</g>
<!-- 3425 -->
<g id="node19" class="node"><title>3425</title>
<g id="a_node19"><a xlink:title="&lt;frozen importlib._bootstrap_external&gt;">
<polygon fill="#0d1575" stroke="#0d1575" points="786,-1462 617,-1462 617,-1410 786,-1410 786,-1462"/>
<text text-anchor="middle" x="701.5" y="-1450" font-family="Arial" font-size="10.00" fill="#ffffff">&lt;frozen importlib:672:exec_module</text>
<text text-anchor="middle" x="701.5" y="-1439" font-family="Arial" font-size="10.00" fill="#ffffff">2.02%</text>
<text text-anchor="middle" x="701.5" y="-1428" font-family="Arial" font-size="10.00" fill="#ffffff">(0.00%)</text>
<text text-anchor="middle" x="701.5" y="-1417" font-family="Arial" font-size="10.00" fill="#ffffff">399×</text>
</a>
</g>
</g>
<!-- 787&#45;&gt;3425 -->
<g id="edge21" class="edge"><title>787&#45;&gt;3425</title>
<path fill="none" stroke="#0d1575" stroke-width="0.5" d="M698.614,-1501.93C699.113,-1490.71 699.703,-1477.42 700.22,-1465.8"/>
<polygon fill="#0d1575" stroke="#0d1575" stroke-width="0.5" points="701.446,-1465.8 700.378,-1462.25 698.999,-1465.69 701.446,-1465.8"/>
<text text-anchor="middle" x="714.5" y="-1485" font-family="Arial" font-size="10.00" fill="#0d1575">2.02%</text>
<text text-anchor="middle" x="714.5" y="-1474" font-family="Arial" font-size="10.00" fill="#0d1575">6×</text>
</g>
<!-- 700&#45;&gt;162 -->
<g id="edge15" class="edge"><title>700&#45;&gt;162</title>
<path fill="none" stroke="#0d1274" stroke-width="0.5" d="M587.5,-1278.22C587.5,-1296.26 587.5,-1321.12 587.5,-1343 587.5,-1621 587.5,-1621 587.5,-1621 587.5,-1657.09 619.004,-1678.89 653.877,-1691.97"/>
<polygon fill="#0d1274" stroke="#0d1274" stroke-width="0.5" points="653.553,-1693.16 657.261,-1693.21 654.395,-1690.86 653.553,-1693.16"/>
<text text-anchor="middle" x="601.5" y="-1485" font-family="Arial" font-size="10.00" fill="#0d1274">1.32%</text>
<text text-anchor="middle" x="601.5" y="-1474" font-family="Arial" font-size="10.00" fill="#0d1274">25×</text>
</g>
<!-- 732&#45;&gt;1 -->
<g id="edge18" class="edge"><title>732&#45;&gt;1</title>
<path fill="none" stroke="#0d1174" stroke-width="0.5" d="M879.164,-1276.39C908.602,-1290.12 934.5,-1311.23 934.5,-1343 934.5,-1713 934.5,-1713 934.5,-1713 934.5,-1736.25 920.752,-1758.37 906.759,-1774.87"/>
<polygon fill="#0d1174" stroke="#0d1174" stroke-width="0.5" points="905.696,-1774.22 904.331,-1777.67 907.548,-1775.83 905.696,-1774.22"/>
<text text-anchor="middle" x="948.5" y="-1531" font-family="Arial" font-size="10.00" fill="#0d1174">1.15%</text>
<text text-anchor="middle" x="948.5" y="-1520" font-family="Arial" font-size="10.00" fill="#0d1174">1×</text>
</g>
<!-- 732&#45;&gt;91 -->
<g id="edge19" class="edge"><title>732&#45;&gt;91</title>
<path fill="none" stroke="#ff0000" stroke-width="4" d="M772.013,-1225.8C760.078,-1214.56 744.692,-1202.24 728.5,-1195 671.886,-1169.68 600.545,-1162.43 551.814,-1160.72"/>
<polygon fill="#ff0000" stroke="#ff0000" stroke-width="4" points="551.867,-1157.22 541.772,-1160.44 551.669,-1164.22 551.867,-1157.22"/>
<text text-anchor="middle" x="780" y="-1209" font-family="Arial" font-size="10.00" fill="#ff0000">100.00%</text>
<text text-anchor="middle" x="780" y="-1198" font-family="Arial" font-size="10.00" fill="#ff0000">1×</text>
</g>
<!-- 1236 -->
<g id="node18" class="node"><title>1236</title>
<g id="a_node18"><a xlink:title="/usr/lib/python3/dist&#45;packages/matplotlib/pyplot.py">
<polygon fill="#0d0f73" stroke="#0d0f73" points="919,-1186 816,-1186 816,-1134 919,-1134 919,-1186"/>
<text text-anchor="middle" x="867.5" y="-1174" font-family="Arial" font-size="10.00" fill="#ffffff">pyplot:17:&lt;module&gt;</text>
<text text-anchor="middle" x="867.5" y="-1163" font-family="Arial" font-size="10.00" fill="#ffffff">0.56%</text>
<text text-anchor="middle" x="867.5" y="-1152" font-family="Arial" font-size="10.00" fill="#ffffff">(0.00%)</text>
<text text-anchor="middle" x="867.5" y="-1141" font-family="Arial" font-size="10.00" fill="#ffffff">1×</text>
</a>
</g>
</g>
<!-- 732&#45;&gt;1236 -->
<g id="edge20" class="edge"><title>732&#45;&gt;1236</title>
<path fill="none" stroke="#0d0f73" stroke-width="0.5" d="M815.556,-1225.93C824.685,-1214.52 835.529,-1200.96 844.942,-1189.2"/>
<polygon fill="#0d0f73" stroke="#0d0f73" stroke-width="0.5" points="846.072,-1189.75 847.302,-1186.25 844.159,-1188.22 846.072,-1189.75"/>
<text text-anchor="middle" x="854.5" y="-1209" font-family="Arial" font-size="10.00" fill="#0d0f73">0.56%</text>
<text text-anchor="middle" x="854.5" y="-1198" font-family="Arial" font-size="10.00" fill="#0d0f73">1×</text>
</g>
<!-- 1236&#45;&gt;162 -->
<g id="edge35" class="edge"><title>1236&#45;&gt;162</title>
<path fill="none" stroke="#0d0f73" stroke-width="0.5" d="M878.393,-1186.09C885.13,-1203.86 892.5,-1228.46 892.5,-1251 892.5,-1621 892.5,-1621 892.5,-1621 892.5,-1653.05 866.773,-1674.03 836.844,-1687.6"/>
<polygon fill="#0d0f73" stroke="#0d0f73" stroke-width="0.5" points="836.262,-1686.52 833.556,-1689.06 837.253,-1688.76 836.262,-1686.52"/>
<text text-anchor="middle" x="906.5" y="-1439" font-family="Arial" font-size="10.00" fill="#0d0f73">0.46%</text>
<text text-anchor="middle" x="906.5" y="-1428" font-family="Arial" font-size="10.00" fill="#0d0f73">3×</text>
</g>
<!-- 3425&#45;&gt;702 -->
<g id="edge40" class="edge"><title>3425&#45;&gt;702</title>
<path fill="none" stroke="#0d1575" stroke-width="0.5" d="M705.957,-1409.93C707.951,-1398.71 710.314,-1385.42 712.38,-1373.8"/>
<polygon fill="#0d1575" stroke="#0d1575" stroke-width="0.5" points="713.605,-1373.91 713.012,-1370.25 711.193,-1373.48 713.605,-1373.91"/>
<text text-anchor="middle" x="725.5" y="-1393" font-family="Arial" font-size="10.00" fill="#0d1575">2.01%</text>
<text text-anchor="middle" x="725.5" y="-1382" font-family="Arial" font-size="10.00" fill="#0d1575">6×</text>
</g>
<!-- 1142 -->
<g id="node21" class="node"><title>1142</title>
<g id="a_node21"><a xlink:title="/home/michael/.local/lib/python3.6/site&#45;packages/torch/nn/_functions/rnn.py">
<polygon fill="#0d4282" stroke="#0d4282" points="655,-788 572,-788 572,-736 655,-736 655,-788"/>
<text text-anchor="middle" x="613.5" y="-776" font-family="Arial" font-size="10.00" fill="#ffffff">rnn:372:forward</text>
<text text-anchor="middle" x="613.5" y="-765" font-family="Arial" font-size="10.00" fill="#ffffff">11.48%</text>
<text text-anchor="middle" x="613.5" y="-754" font-family="Arial" font-size="10.00" fill="#ffffff">(0.00%)</text>
<text text-anchor="middle" x="613.5" y="-743" font-family="Arial" font-size="10.00" fill="#ffffff">11×</text>
</a>
</g>
</g>
<!-- 829&#45;&gt;1142 -->
<g id="edge22" class="edge"><title>829&#45;&gt;1142</title>
<path fill="none" stroke="#0d4282" stroke-width="0.5" d="M613.5,-857.844C613.5,-838.644 613.5,-812.158 613.5,-792.054"/>
<polygon fill="#0d4282" stroke="#0d4282" stroke-width="0.5" points="614.725,-791.623 613.5,-788.123 612.275,-791.623 614.725,-791.623"/>
<text text-anchor="middle" x="630.5" y="-826" font-family="Arial" font-size="10.00" fill="#0d4282">11.48%</text>
<text text-anchor="middle" x="630.5" y="-815" font-family="Arial" font-size="10.00" fill="#0d4282">11×</text>
</g>
<!-- 2445 -->
<g id="node33" class="node"><title>2445</title>
<g id="a_node33"><a xlink:title="/home/michael/.local/lib/python3.6/site&#45;packages/torch/nn/_functions/rnn.py">
<polygon fill="#0d4282" stroke="#0d4282" points="655,-696 572,-696 572,-644 655,-644 655,-696"/>
<text text-anchor="middle" x="613.5" y="-684" font-family="Arial" font-size="10.00" fill="#ffffff">rnn:241:forward</text>
<text text-anchor="middle" x="613.5" y="-673" font-family="Arial" font-size="10.00" fill="#ffffff">11.48%</text>
<text text-anchor="middle" x="613.5" y="-662" font-family="Arial" font-size="10.00" fill="#ffffff">(0.00%)</text>
<text text-anchor="middle" x="613.5" y="-651" font-family="Arial" font-size="10.00" fill="#ffffff">11×</text>
</a>
</g>
</g>
<!-- 1142&#45;&gt;2445 -->
<g id="edge34" class="edge"><title>1142&#45;&gt;2445</title>
<path fill="none" stroke="#0d4282" stroke-width="0.5" d="M613.5,-735.93C613.5,-724.712 613.5,-711.422 613.5,-699.798"/>
<polygon fill="#0d4282" stroke="#0d4282" stroke-width="0.5" points="614.725,-699.748 613.5,-696.248 612.275,-699.748 614.725,-699.748"/>
<text text-anchor="middle" x="630.5" y="-719" font-family="Arial" font-size="10.00" fill="#0d4282">11.48%</text>
<text text-anchor="middle" x="630.5" y="-708" font-family="Arial" font-size="10.00" fill="#0d4282">11×</text>
</g>
<!-- 2807 -->
<g id="node23" class="node"><title>2807</title>
<g id="a_node23"><a xlink:title="~">
<polygon fill="#dfbd05" stroke="#dfbd05" points="523,-788 230,-788 230,-736 523,-736 523,-788"/>
<text text-anchor="middle" x="376.5" y="-776" font-family="Arial" font-size="10.00" fill="#ffffff">~:0:&lt;method &#39;run_backward&#39; of &#39;torch._C._EngineBase&#39; objects&gt;</text>
<text text-anchor="middle" x="376.5" y="-765" font-family="Arial" font-size="10.00" fill="#ffffff">78.96%</text>
<text text-anchor="middle" x="376.5" y="-754" font-family="Arial" font-size="10.00" fill="#ffffff">(78.96%)</text>
<text text-anchor="middle" x="376.5" y="-743" font-family="Arial" font-size="10.00" fill="#ffffff">9×</text>
</a>
</g>
</g>
<!-- 831&#45;&gt;2807 -->
<g id="edge23" class="edge"><title>831&#45;&gt;2807</title>
<path fill="none" stroke="#dfbd05" stroke-width="3.16" d="M378.081,-857.844C377.787,-840.244 377.392,-816.522 377.07,-797.205"/>
<polygon fill="#dfbd05" stroke="#dfbd05" stroke-width="3.16" points="380.182,-796.97 376.919,-788.123 373.953,-797.074 380.182,-796.97"/>
<text text-anchor="middle" x="395.5" y="-826" font-family="Arial" font-size="10.00" fill="#dfbd05">78.96%</text>
<text text-anchor="middle" x="395.5" y="-815" font-family="Arial" font-size="10.00" fill="#dfbd05">9×</text>
</g>
<!-- 1143 -->
<g id="node25" class="node"><title>1143</title>
<g id="a_node25"><a xlink:title="~">
<polygon fill="#0d0f73" stroke="#0d0f73" points="315,-910 0,-910 0,-858 315,-858 315,-910"/>
<text text-anchor="middle" x="157.5" y="-898" font-family="Arial" font-size="10.00" fill="#ffffff">~:0:&lt;method &#39;_set_from_file&#39; of &#39;torch._C.FloatStorageBase&#39; objects&gt;</text>
<text text-anchor="middle" x="157.5" y="-887" font-family="Arial" font-size="10.00" fill="#ffffff">0.52%</text>
<text text-anchor="middle" x="157.5" y="-876" font-family="Arial" font-size="10.00" fill="#ffffff">(0.52%)</text>
<text text-anchor="middle" x="157.5" y="-865" font-family="Arial" font-size="10.00" fill="#ffffff">4×</text>
</a>
</g>
</g>
<!-- 835&#45;&gt;1143 -->
<g id="edge25" class="edge"><title>835&#45;&gt;1143</title>
<path fill="none" stroke="#0d0f73" stroke-width="0.5" d="M193.572,-949.93C187.286,-938.615 179.829,-925.193 173.332,-913.497"/>
<polygon fill="#0d0f73" stroke="#0d0f73" stroke-width="0.5" points="174.297,-912.712 171.527,-910.248 172.155,-913.902 174.297,-912.712"/>
<text text-anchor="middle" x="202.5" y="-933" font-family="Arial" font-size="10.00" fill="#0d0f73">0.52%</text>
<text text-anchor="middle" x="202.5" y="-922" font-family="Arial" font-size="10.00" fill="#0d0f73">4×</text>
</g>
<!-- 1140&#45;&gt;897 -->
<g id="edge33" class="edge"><title>1140&#45;&gt;897</title>
<path fill="none" stroke="#0d4983" stroke-width="0.51" d="M532.602,-910.209C536.54,-919.987 538.654,-931.174 534.5,-941 533.675,-942.951 532.678,-944.845 531.55,-946.674"/>
<polygon fill="#0d4983" stroke="#0d4983" stroke-width="0.51" points="530.347,-946.206 529.386,-949.897 532.439,-947.611 530.347,-946.206"/>
<text text-anchor="middle" x="554.5" y="-933" font-family="Arial" font-size="10.00" fill="#0d4983">12.69%</text>
<text text-anchor="middle" x="554.5" y="-922" font-family="Arial" font-size="10.00" fill="#0d4983">53×</text>
</g>
<!-- 2384&#45;&gt;1125 -->
<g id="edge36" class="edge"><title>2384&#45;&gt;1125</title>
<path fill="none" stroke="#0d1274" stroke-width="0.5" d="M522.61,-796.674C524.483,-793.883 526.162,-790.971 527.5,-788 540.583,-758.943 537.5,-748.867 537.5,-717 537.5,-717 537.5,-717 537.5,-393 537.5,-372.19 542.423,-349.246 547.257,-331.732"/>
<polygon fill="#0d1274" stroke="#0d1274" stroke-width="0.5" points="548.453,-332.005 548.222,-328.304 546.095,-331.341 548.453,-332.005"/>
<text text-anchor="middle" x="551.5" y="-581" font-family="Arial" font-size="10.00" fill="#0d1274">1.28%</text>
<text text-anchor="middle" x="551.5" y="-570" font-family="Arial" font-size="10.00" fill="#0d1274">30×</text>
</g>
<!-- 1124 -->
<g id="node28" class="node"><title>1124</title>
<g id="a_node28"><a xlink:title="~">
<polygon fill="#0d377f" stroke="#0d377f" points="628,-236 443,-236 443,-184 628,-184 628,-236"/>
<text text-anchor="middle" x="535.5" y="-224" font-family="Arial" font-size="10.00" fill="#ffffff">~:0:&lt;built&#45;in method torch._C.addmm&gt;</text>
<text text-anchor="middle" x="535.5" y="-213" font-family="Arial" font-size="10.00" fill="#ffffff">9.33%</text>
<text text-anchor="middle" x="535.5" y="-202" font-family="Arial" font-size="10.00" fill="#ffffff">(9.33%)</text>
<text text-anchor="middle" x="535.5" y="-191" font-family="Arial" font-size="10.00" fill="#ffffff">579×</text>
</a>
</g>
</g>
<!-- 1125&#45;&gt;1124 -->
<g id="edge29" class="edge"><title>1125&#45;&gt;1124</title>
<path fill="none" stroke="#0d377f" stroke-width="0.5" d="M550.65,-275.93C548.033,-264.712 544.932,-251.422 542.219,-239.798"/>
<polygon fill="#0d377f" stroke="#0d377f" stroke-width="0.5" points="543.379,-239.378 541.391,-236.248 540.994,-239.935 543.379,-239.378"/>
<text text-anchor="middle" x="562.5" y="-259" font-family="Arial" font-size="10.00" fill="#0d377f">9.33%</text>
<text text-anchor="middle" x="562.5" y="-248" font-family="Arial" font-size="10.00" fill="#0d377f">579×</text>
</g>
<!-- 2625 -->
<g id="node30" class="node"><title>2625</title>
<g id="a_node30"><a xlink:title="/home/michael/.local/lib/python3.6/site&#45;packages/torch/autograd/variable.py">
<polygon fill="#0d1976" stroke="#0d1976" points="741.5,-236 637.5,-236 637.5,-184 741.5,-184 741.5,-236"/>
<text text-anchor="middle" x="689.5" y="-224" font-family="Arial" font-size="10.00" fill="#ffffff">variable:385:matmul</text>
<text text-anchor="middle" x="689.5" y="-213" font-family="Arial" font-size="10.00" fill="#ffffff">2.91%</text>
<text text-anchor="middle" x="689.5" y="-202" font-family="Arial" font-size="10.00" fill="#ffffff">(0.00%)</text>
<text text-anchor="middle" x="689.5" y="-191" font-family="Arial" font-size="10.00" fill="#ffffff">221×</text>
</a>
</g>
</g>
<!-- 1125&#45;&gt;2625 -->
<g id="edge30" class="edge"><title>1125&#45;&gt;2625</title>
<path fill="none" stroke="#0d1976" stroke-width="0.5" d="M593.548,-275.93C610.841,-264.228 631.464,-250.273 649.151,-238.304"/>
<polygon fill="#0d1976" stroke="#0d1976" stroke-width="0.5" points="649.977,-239.224 652.189,-236.248 648.604,-237.195 649.977,-239.224"/>
<text text-anchor="middle" x="653.5" y="-259" font-family="Arial" font-size="10.00" fill="#0d1976">2.91%</text>
<text text-anchor="middle" x="653.5" y="-248" font-family="Arial" font-size="10.00" fill="#0d1976">221×</text>
</g>
<!-- 1127 -->
<g id="node32" class="node"><title>1127</title>
<g id="a_node32"><a xlink:title="/home/michael/.local/lib/python3.6/site&#45;packages/torch/functional.py">
<polygon fill="#0d1976" stroke="#0d1976" points="746,-144 633,-144 633,-92 746,-92 746,-144"/>
<text text-anchor="middle" x="689.5" y="-132" font-family="Arial" font-size="10.00" fill="#ffffff">functional:124:matmul</text>
<text text-anchor="middle" x="689.5" y="-121" font-family="Arial" font-size="10.00" fill="#ffffff">2.91%</text>
<text text-anchor="middle" x="689.5" y="-110" font-family="Arial" font-size="10.00" fill="#ffffff">(0.01%)</text>
<text text-anchor="middle" x="689.5" y="-99" font-family="Arial" font-size="10.00" fill="#ffffff">221×</text>
</a>
</g>
</g>
<!-- 2625&#45;&gt;1127 -->
<g id="edge39" class="edge"><title>2625&#45;&gt;1127</title>
<path fill="none" stroke="#0d1976" stroke-width="0.5" d="M689.5,-183.93C689.5,-172.712 689.5,-159.422 689.5,-147.798"/>
<polygon fill="#0d1976" stroke="#0d1976" stroke-width="0.5" points="690.725,-147.748 689.5,-144.248 688.275,-147.748 690.725,-147.748"/>
<text text-anchor="middle" x="703.5" y="-167" font-family="Arial" font-size="10.00" fill="#0d1976">2.91%</text>
<text text-anchor="middle" x="703.5" y="-156" font-family="Arial" font-size="10.00" fill="#0d1976">221×</text>
</g>
<!-- 1126 -->
<g id="node31" class="node"><title>1126</title>
<g id="a_node31"><a xlink:title="~">
<polygon fill="#0d1976" stroke="#0d1976" points="774,-52 605,-52 605,-0 774,-0 774,-52"/>
<text text-anchor="middle" x="689.5" y="-40" font-family="Arial" font-size="10.00" fill="#ffffff">~:0:&lt;built&#45;in method torch._C.mm&gt;</text>
<text text-anchor="middle" x="689.5" y="-29" font-family="Arial" font-size="10.00" fill="#ffffff">2.89%</text>
<text text-anchor="middle" x="689.5" y="-18" font-family="Arial" font-size="10.00" fill="#ffffff">(2.89%)</text>
<text text-anchor="middle" x="689.5" y="-7" font-family="Arial" font-size="10.00" fill="#ffffff">221×</text>
</a>
</g>
</g>
<!-- 1127&#45;&gt;1126 -->
<g id="edge31" class="edge"><title>1127&#45;&gt;1126</title>
<path fill="none" stroke="#0d1976" stroke-width="0.5" d="M689.5,-91.93C689.5,-80.7116 689.5,-67.4223 689.5,-55.7978"/>
<polygon fill="#0d1976" stroke="#0d1976" stroke-width="0.5" points="690.725,-55.7477 689.5,-52.2477 688.275,-55.7478 690.725,-55.7477"/>
<text text-anchor="middle" x="703.5" y="-75" font-family="Arial" font-size="10.00" fill="#0d1976">2.89%</text>
<text text-anchor="middle" x="703.5" y="-64" font-family="Arial" font-size="10.00" fill="#0d1976">221×</text>
</g>
<!-- 2445&#45;&gt;45 -->
<g id="edge37" class="edge"><title>2445&#45;&gt;45</title>
<path fill="none" stroke="#0d4282" stroke-width="0.5" d="M613.5,-643.93C613.5,-632.712 613.5,-619.422 613.5,-607.798"/>
<polygon fill="#0d4282" stroke="#0d4282" stroke-width="0.5" points="614.725,-607.748 613.5,-604.248 612.275,-607.748 614.725,-607.748"/>
<text text-anchor="middle" x="630.5" y="-627" font-family="Arial" font-size="10.00" fill="#0d4282">11.48%</text>
<text text-anchor="middle" x="630.5" y="-616" font-family="Arial" font-size="10.00" fill="#0d4282">11×</text>
</g>
</g>
</svg>
